<svg width="253" height="176" viewBox="0 0 253 176" fill="none" xmlns="http://www.w3.org/2000/svg">
  <rect width="253" height="176" rx="40" fill="#1E293B" />
  <path
    d="M68.648 94.12H54.568V137H41.128C38.2267 137 36.3067 136.531 35.368 135.592C34.5147 134.653 34.088 132.691 34.088 129.704V44.456H49.96C51.3253 44.456 52.4347 44.9253 53.288 45.864C54.1413 46.8027 54.568 48.04 54.568 49.576V81.96H68.648V94.12ZM73.768 44.456H87.208C90.1093 44.456 91.9867 44.9253 92.84 45.864C93.7787 46.8027 94.248 48.7653 94.248 51.752V137H78.376C77.0107 137 75.9013 136.531 75.048 135.592C74.1947 134.653 73.768 133.416 73.768 131.88V44.456Z"
    fill="#B91C1C" />
  <path
    d="M180.032 44.456H199.232C205.461 44.456 210.155 45.5227 213.312 47.656C216.555 49.7893 218.176 53.5013 218.176 58.792V129.704C218.176 132.691 217.707 134.653 216.768 135.592C215.915 136.531 214.037 137 211.136 137H197.696V60.328C197.696 58.9627 197.483 58.024 197.056 57.512C196.715 56.9147 195.776 56.616 194.24 56.616H180.032V44.456ZM133.568 137H120.128C117.227 137 115.307 136.531 114.368 135.592C113.515 134.653 113.088 132.691 113.088 129.704V49.576C113.088 48.04 113.515 46.8027 114.368 45.864C115.221 44.9253 116.331 44.456 117.696 44.456H133.568V137ZM138.816 44.456H171.584C172.949 44.456 174.059 44.9253 174.912 45.864C175.765 46.8027 176.192 48.04 176.192 49.576V127.656H162.88C160.32 127.656 158.485 126.973 157.376 125.608C156.267 124.157 155.712 121.853 155.712 118.696V60.328C155.712 58.9627 155.499 58.024 155.072 57.512C154.731 56.9147 153.792 56.616 152.256 56.616H138.816V44.456Z"
    fill="#1D4ED8" />
</svg>